# xmcd
#
# Track frame offsets:
#	300
#	8607
#	19297
#	30018
#	42168
#	53908
#	66015
#	77670
#	89670
#	99678
#	110739
#	122071
#	133825
#	147058
#	160013
#	169999
#	185241
#	198069
#	209444
#	225947
#	237555
#	248981
#	256949
#	266878
#
# Disc length: 3722 seconds
#
# Revision: 1
# Processed by: cddbd v1.5.1PL2 Copyright (c) Steve Scherf et al.
# Submitted via: audiograbber 1.82.02
#
DISCID=500e8618
DTITLE=Various Artist - Rarest Of The Rare, Vol 12
DYEAR=1900
DGENRE=R&B
TTITLE0=01 - Apollos (Valentine and The) - Never
TTITLE1=02 - Signeals - Juanita
TTITLE2=03 - Ray Flemming and Group - Wonderland Of Love
TTITLE3=04 - Belairs (Little D and The) - Are You My Girl
TTITLE4=05 - Galaxys - Lovers Prayer
TTITLE5=06 - Contours - The Mission
TTITLE6=07 - Flyers - A Sign That Your Mine
TTITLE7=08 - Carver Smith High Combo - Cry For Love
TTITLE8=09 - Enchanter - Oh Rose Marie
TTITLE9=10 - Alley Cats - Darling I Love You, Dearly
TTITLE10=11 - Allen Brooks and Group - Ding Dong Darling
TTITLE11=12 - Curtis Ware and The Four Do-Matics - Am I In Love
TTITLE12=13 - Saints - My Only Love
TTITLE13=14 - Sequence - Night Owl
TTITLE14=15 - Tone Blenders - I Thank Heaven
TTITLE15=16 - X-Citers - As We Danced
TTITLE16=17 - Fred Norman and Group - The Letter
TTITLE17=18 - Columbus Pulsations - Linda
TTITLE18=19 - Rocketones - Cruise To The Moon
TTITLE19=20 - Lyrics (Kenneth Churchill and The) - Would You Rather
TTITLE20=21 - Goodfellows - Another Chance
TTITLE21=22 - Montclairs - I've Heard About You
TTITLE22=23 - Ray Stevens and Group - All On My Mind
TTITLE23=24 - Robert Portee - Casanova
EXTD=
EXTT0=
EXTT1=
EXTT2=
EXTT3=
EXTT4=
EXTT5=
EXTT6=
EXTT7=
EXTT8=
EXTT9=
EXTT10=
EXTT11=
EXTT12=
EXTT13=
EXTT14=
EXTT15=
EXTT16=
EXTT17=
EXTT18=
EXTT19=
EXTT20=
EXTT21=
EXTT22=
EXTT23=
PLAYORDER=
